
<svg xmlns="http://www.w3.org/2000/svg" version="1.1" xmlns:xlink="http://www.w3.org/1999/xlink" preserveAspectRatio="none" x="0px" y="0px" width="1000px" height="1000px" viewBox="0 0 1000 1000">
<defs/>

<g id="Capa_1">
<g>
<g>
<g>
<path fill="#FF797D" stroke="none" d="
M 919.45 80.55
Q 838.9 0 725 0
L 275 0
Q 161.1 0 80.55 80.55 0 161.1 0 275
L 0 725
Q 0 838.9 80.55 919.45 161.1 1000 275 1000
L 725 1000
Q 838.9 1000 919.45 919.45 1000 838.9 1000 725
L 1000 275
Q 1000 161.1 919.45 80.55
M 698.35 286.8
Q 696.7 284.2 689.3 284.25 679.45 284.4 661.65 289 630.5 299.7 595.55 324.1
L 595.55 324.15
Q 595.5 324.15 595.45 324.2 595.4 324.2 595.3 324.3 595.2 324.35 595.05 324.4 594.85 324.55 594.7 324.6
L 594.3 324.75
Q 593.45 324.85 592.65 324.6 558.85 312.85 505.9 311.6
L 505.8 311.6
Q 449.15 311.85 408.75 324.3
L 408.7 324.3
Q 408.45 324.35 408.3 324.4 408.1 324.4 408 324.4
L 407.1 324.35
Q 406.45 324.2 405.9 323.85 373.8 300.55 334.45 287.65 315.65 283.15 305.3 284.65 300.5 289.15 293.8 323.75 289.85 355.05 299.45 385.2 299.5 385.25 299.55 385.45 299.7 385.85 299.7 386.3 299.7 386.5 299.7 386.75
L 299.45 387.65
Q 299.4 387.8 299.4 387.9 299.2 388.25 298.95 388.55
L 298.8 388.7
Q 282.3 407.55 271.95 433.8 271.9 433.9 271.8 434.05 259.3 470.7 262.5 509.55
L 262.5 509.6
Q 262.5 509.65 262.5 509.75
L 262.5 509.85
Q 263.8 545.25 277.3 581.75 277.35 581.8 277.35 581.95 292.2 616.65 316.3 636.4 316.4 636.5 316.6 636.6 348.05 662.75 390.65 672.55
L 390.7 672.55 390.8 672.6
Q 413.6 677.75 425.35 678.8 425.45 678.8 425.6 678.85
L 426.75 679.3
Q 427 679.45 427.25 679.6 427.9 680.25 428.15 681.1
L 428.25 681.55
Q 428.25 681.7 428.25 681.9 428.25 682.1 428.25 682.35 428.2 683.4 427.5 684.25 412.65 701.3 408.8 728.55 408.8 728.7 408.8 728.75 408.75 728.9 408.75 729 408.7 729.25 408.65 729.45 408.3 730.2 407.85 730.65 407.7 730.75 407.55 730.9 407.25 731.15 406.9 731.3
L 406.85 731.35
Q 387.4 740 367.55 740.7
L 367.35 740.7
Q 342.2 740.85 324.4 727.6 324.3 727.5 324.2 727.45 309.75 717.1 298 696.6 297.9 696.55 297.9 696.45 287.2 680.4 275.8 672.25 275.7 672.2 275.5 672.05 256.7 658.4 239.35 659.9 239.1 659.9 238.85 659.9 228.05 660.3 225.05 665.1 225 665.2 225 665.25 223.55 668.95 228.3 674.4
L 237.85 682.7
Q 249.85 688.95 255.75 697.8 265.9 709.7 277.65 732.9
L 277.7 733
Q 277.8 733.15 277.85 733.35
L 277.9 733.5
Q 285.15 753.15 293.9 763.15
L 294 763.25
Q 306.55 777.1 324.9 783.1 325.05 783.15 325.1 783.15 350.2 790.55 375.3 788.75 375.35 788.75 375.55 788.75
L 402.55 785.55
Q 402.85 785.5 403.25 785.5 404.55 785.5 405.5 786.45 406.4 787.35 406.4 788.75
L 406.4 850.45
Q 407.85 866.9 397.25 872.4 395.55 873.25 393.6 873.85 386.95 876.95 373.55 871.65
L 374.45 872.05 369.25 870.45
Q 295.2 842.6 234.9 780.85 125 668.3 125 509.15 125 350 234.9 237.55 344.65 125 500.05 125 655.4 125 765.2 237.55 875 350 875 509.15 875 668.3 765.2 780.85 702.55 845 625.05 872.55
L 622.55 873.25
Q 611.5 877.05 602.5 872.7 602.35 872.6 602.15 872.55 591.65 868 593.55 842.8
L 593.55 753
Q 593.6 707.75 573.1 684.3 573 684.25 572.95 684.25 572.65 683.85 572.45 683.45 572.4 683.25 572.3 683.15 572.15 682.55 572.15 681.9 572.2 680.8 572.85 680.1 572.95 679.8 573.2 679.6 573.35 679.5 573.45 679.45 573.6 679.3 573.7 679.25
L 573.8 679.25 573.9 679.15
Q 574.15 678.95 574.4 678.9 574.65 678.85 574.9 678.85 575 678.8 575.2 678.8 632.8 671.1 666 650.3 666.05 650.15 666.2 650.1 703.1 627.25 721.4 587.25
L 721.45 587.15
Q 734.5 556.6 738.15 520.35
L 738.15 520.1
Q 742.15 481.1 735.75 454.95 735.7 454.7 735.7 454.55 730.05 429.95 716.95 408.75
L 716.9 408.6
Q 708.75 395.25 702.6 388.9 702.1 388.5 701.85 388 701.7 387.8 701.65 387.65 701.6 387.55 701.6 387.4 701.4 386.95 701.4 386.45
L 701.6 385.25
Q 701.6 385.2 701.65 385.2
L 701.65 385.1
Q 709.75 363.9 708.4 333.9 708.4 333.8 708.4 333.7 705.6 306.25 698.45 287.15 698.35 286.95 698.35 286.8 Z"/>
</g>
</g>
</g>
</g>
</svg>
